<mxfile host="app.diagrams.net" modified="2022-06-11T11:20:42.829Z" agent="5.0 (X11; Linux x86_64) AppleWebKit/537.36 (KHTML, like Gecko) Chrome/102.0.5005.115 Safari/537.36" etag="Gi6GWcwZKmKD1EkjJvy4" version="19.0.3" type="github">
  <diagram id="C5RBs43oDa-KdzZeNtuy" name="Page-1">
    <mxGraphModel dx="868" dy="423" grid="1" gridSize="10" guides="1" tooltips="1" connect="1" arrows="1" fold="1" page="1" pageScale="1" pageWidth="827" pageHeight="1169" math="0" shadow="0">
      <root>
        <mxCell id="WIyWlLk6GJQsqaUBKTNV-0" />
        <mxCell id="WIyWlLk6GJQsqaUBKTNV-1" parent="WIyWlLk6GJQsqaUBKTNV-0" />
        <mxCell id="M9Ej_VBnjrZrETukrmaF-2" value="" style="edgeStyle=orthogonalEdgeStyle;rounded=0;orthogonalLoop=1;jettySize=auto;html=1;" edge="1" parent="WIyWlLk6GJQsqaUBKTNV-1" source="M9Ej_VBnjrZrETukrmaF-1">
          <mxGeometry relative="1" as="geometry">
            <mxPoint x="340" y="190" as="targetPoint" />
          </mxGeometry>
        </mxCell>
        <mxCell id="M9Ej_VBnjrZrETukrmaF-1" value="START" style="rounded=1;whiteSpace=wrap;html=1;" vertex="1" parent="WIyWlLk6GJQsqaUBKTNV-1">
          <mxGeometry x="280" y="90" width="120" height="60" as="geometry" />
        </mxCell>
        <mxCell id="M9Ej_VBnjrZrETukrmaF-6" value="" style="edgeStyle=orthogonalEdgeStyle;rounded=0;orthogonalLoop=1;jettySize=auto;html=1;" edge="1" parent="WIyWlLk6GJQsqaUBKTNV-1" source="M9Ej_VBnjrZrETukrmaF-3" target="M9Ej_VBnjrZrETukrmaF-4">
          <mxGeometry relative="1" as="geometry" />
        </mxCell>
        <mxCell id="M9Ej_VBnjrZrETukrmaF-3" value="read number1 and number2" style="shape=parallelogram;perimeter=parallelogramPerimeter;whiteSpace=wrap;html=1;fixedSize=1;" vertex="1" parent="WIyWlLk6GJQsqaUBKTNV-1">
          <mxGeometry x="270" y="190" width="130" height="60" as="geometry" />
        </mxCell>
        <mxCell id="M9Ej_VBnjrZrETukrmaF-4" value="Initialise int num1, equal number1 multiplied by number1" style="rounded=0;whiteSpace=wrap;html=1;" vertex="1" parent="WIyWlLk6GJQsqaUBKTNV-1">
          <mxGeometry x="275" y="280" width="120" height="60" as="geometry" />
        </mxCell>
        <mxCell id="M9Ej_VBnjrZrETukrmaF-9" value="" style="edgeStyle=orthogonalEdgeStyle;rounded=0;orthogonalLoop=1;jettySize=auto;html=1;" edge="1" parent="WIyWlLk6GJQsqaUBKTNV-1" source="M9Ej_VBnjrZrETukrmaF-7" target="M9Ej_VBnjrZrETukrmaF-8">
          <mxGeometry relative="1" as="geometry" />
        </mxCell>
        <mxCell id="M9Ej_VBnjrZrETukrmaF-7" value="Initialise int num2, equal number2 multiplied by number2" style="rounded=0;whiteSpace=wrap;html=1;" vertex="1" parent="WIyWlLk6GJQsqaUBKTNV-1">
          <mxGeometry x="275" y="370" width="120" height="60" as="geometry" />
        </mxCell>
        <mxCell id="M9Ej_VBnjrZrETukrmaF-11" value="" style="edgeStyle=orthogonalEdgeStyle;rounded=0;orthogonalLoop=1;jettySize=auto;html=1;" edge="1" parent="WIyWlLk6GJQsqaUBKTNV-1" source="M9Ej_VBnjrZrETukrmaF-8" target="M9Ej_VBnjrZrETukrmaF-10">
          <mxGeometry relative="1" as="geometry" />
        </mxCell>
        <mxCell id="M9Ej_VBnjrZrETukrmaF-8" value="initialise int sum, equal to zero" style="whiteSpace=wrap;html=1;rounded=0;" vertex="1" parent="WIyWlLk6GJQsqaUBKTNV-1">
          <mxGeometry x="275" y="480" width="120" height="60" as="geometry" />
        </mxCell>
        <mxCell id="M9Ej_VBnjrZrETukrmaF-13" value="" style="edgeStyle=orthogonalEdgeStyle;rounded=0;orthogonalLoop=1;jettySize=auto;html=1;" edge="1" parent="WIyWlLk6GJQsqaUBKTNV-1" source="M9Ej_VBnjrZrETukrmaF-10" target="M9Ej_VBnjrZrETukrmaF-12">
          <mxGeometry relative="1" as="geometry" />
        </mxCell>
        <mxCell id="M9Ej_VBnjrZrETukrmaF-10" value="save addition of num1 and num2 to sum&amp;nbsp;&amp;nbsp;" style="whiteSpace=wrap;html=1;rounded=0;" vertex="1" parent="WIyWlLk6GJQsqaUBKTNV-1">
          <mxGeometry x="275" y="600" width="120" height="60" as="geometry" />
        </mxCell>
        <mxCell id="M9Ej_VBnjrZrETukrmaF-12" value="return sum" style="rounded=1;whiteSpace=wrap;html=1;" vertex="1" parent="WIyWlLk6GJQsqaUBKTNV-1">
          <mxGeometry x="275" y="690" width="120" height="60" as="geometry" />
        </mxCell>
      </root>
    </mxGraphModel>
  </diagram>
</mxfile>
